# xmcd CD database file
#
# Track frame offsets:
#	150
#	21125
#	40002
#
# Disc length: 812 seconds
#
# Revision: 0
# Processed by: cddbd v1.5.1PL0 Copyright (c) Steve Scherf et al.
# Submitted via: CDex 1.51
#
DISCID=18032a03
DTITLE=東亜佐美 - LET'S TRY
DYEAR=1995
DGENRE=JPop
TTITLE0=LET'S TRY
TTITLE1=ストレスをノックアウト
TTITLE2=LET'S TRY（backing track）
EXTD=YEAR: 1995
EXTT0=
EXTT1=
EXTT2=
PLAYORDER=
